<?xml version="1.0" standalone="no"?>
<!DOCTYPE svg PUBLIC "-//W3C//DTD SVG 20010904//EN"
 "http://www.w3.org/TR/2001/REC-SVG-20010904/DTD/svg10.dtd">
<svg version="1.0" xmlns="http://www.w3.org/2000/svg"
 width="500.000000pt" height="500.000000pt" viewBox="0 0 500.000000 500.000000"
 preserveAspectRatio="xMidYMid meet">

<g transform="translate(0.000000,500.000000) scale(0.100000,-0.100000)"
fill="#000000" stroke="none">
<path d="M2273 4774 c-40 -20 -73 -84 -73 -142 0 -51 -17 -62 -92 -62 -66 0
-115 -24 -146 -70 l-23 -35 -347 -5 c-338 -5 -348 -6 -399 -29 -59 -26 -129
-96 -165 -162 l-23 -44 4 -522 3 -523 -271 0 -271 0 0 -225 0 -225 268 -2 267
-3 0 -1135 0 -1135 26 -55 c33 -70 89 -126 159 -159 l55 -26 1255 0 1255 0 55
26 c70 33 126 89 159 159 l26 55 0 1885 0 1885 -29 52 c-39 71 -90 121 -156
152 l-55 26 -347 5 -347 5 -23 35 c-31 46 -80 70 -146 70 -75 0 -92 11 -92 62
0 59 -33 123 -74 142 -49 23 -406 23 -453 0z m433 -81 c6 -13 14 -20 17 -16 4
3 7 -12 7 -34 0 -60 18 -101 57 -127 29 -20 31 -24 16 -30 -25 -10 -107 77
-100 105 3 10 1 19 -4 19 -5 0 -9 18 -9 40 l0 40 -190 0 -190 0 0 -40 c0 -22
-4 -40 -9 -40 -5 0 -7 -9 -4 -19 7 -28 -75 -115 -100 -105 -15 6 -13 10 16 30
39 26 57 67 57 126 0 24 4 37 10 33 6 -3 10 0 10 7 0 35 21 38 214 36 186 -3
191 -4 202 -25z m-520 -216 c3 -2 -25 -2 -62 1 -49 4 -65 2 -60 -7 4 -6 1 -11
-9 -11 -14 0 -15 -23 -13 -192 l3 -193 455 0 455 0 3 139 c3 136 2 139 -16
123 -10 -9 -22 -14 -25 -10 -4 3 -7 2 -7 -3 0 -7 -144 -10 -400 -9 -374 1
-400 2 -420 20 -27 24 -25 66 4 87 21 15 64 17 424 19 220 0 405 -2 411 -6 6
-3 11 -9 11 -13 0 -4 -184 -6 -409 -4 -366 3 -410 1 -425 -13 -12 -12 -13 -21
-6 -36 10 -18 26 -19 414 -19 341 0 405 2 416 15 6 8 8 20 4 26 -4 7 -3 9 3 6
12 -8 23 14 23 44 0 11 -7 19 -16 19 -9 0 -12 5 -8 11 5 9 -11 11 -62 7 -39
-3 -60 -2 -48 2 12 5 45 10 74 11 45 3 55 0 71 -20 17 -21 19 -42 19 -203 0
-177 0 -179 -25 -203 l-24 -25 -441 0 -441 0 -24 25 c-25 24 -25 26 -25 203 0
162 2 182 19 204 18 23 23 24 86 17 36 -3 68 -9 71 -12z m-403 -54 c-7 -2 -19
-2 -25 0 -7 3 -2 5 12 5 14 0 19 -2 13 -5z m140 0 c-7 -2 -19 -2 -25 0 -7 3
-2 5 12 5 14 0 19 -2 13 -5z m1532 -33 c243 -1 270 -3 313 -21 59 -26 107 -71
138 -131 l24 -47 0 -1856 0 -1856 -24 -47 c-30 -60 -89 -114 -147 -136 -40
-15 -146 -16 -1274 -14 l-1230 3 -40 22 c-50 27 -97 76 -124 130 -20 41 -21
53 -23 842 l-3 801 167 0 167 0 3 -562 3 -563 25 -50 c31 -64 92 -124 153
-153 l47 -22 870 0 870 0 50 25 c65 33 119 87 150 150 l25 50 0 1500 0 1500
-28 57 c-32 65 -89 121 -156 152 -39 18 -71 22 -201 26 l-155 5 -3 97 -3 97
43 4 c24 2 55 3 70 1 15 -2 147 -4 293 -4z m-1507 -97 l-3 -98 -155 -5 c-144
-5 -159 -7 -212 -33 -106 -52 -178 -166 -178 -282 l0 -55 -167 0 -168 0 3 187
c3 172 5 190 27 232 30 58 78 105 135 129 42 19 71 20 383 21 l338 1 -3 -97z
m1953 10 c13 -16 12 -17 -3 -4 -17 13 -22 21 -14 21 2 0 10 -8 17 -17z m-2828
-48 c-26 -48 -33 -54 -33 -31 0 13 46 76 55 76 2 0 -8 -20 -22 -45z m2865 -10
c-3 -3 -9 2 -12 12 -6 14 -5 15 5 6 7 -7 10 -15 7 -18z m-2060 -72 c-32 -2
-86 -2 -120 0 -35 2 -9 3 57 3 66 0 94 -1 63 -3z m-218 -32 c0 -3 62 -6 138
-5 l137 1 -120 -7 -120 -6 128 -2 127 -2 -2 -29 c-2 -34 22 -74 59 -98 25 -17
65 -18 493 -18 428 0 468 1 493 18 37 24 61 64 59 98 l-2 29 133 0 c166 0 211
-13 280 -82 27 -27 47 -54 44 -61 -2 -6 2 -18 10 -25 16 -16 18 -46 2 -36 -8
4 -8 1 -1 -13 7 -13 11 -479 12 -1449 0 -786 0 -1439 -1 -1451 0 -13 -5 -23
-10 -23 -4 0 -6 -6 -3 -14 6 -16 -22 -30 -31 -16 -4 6 -1 10 4 10 8 0 10 457
8 1487 -2 1396 -3 1490 -20 1520 -23 43 -85 102 -114 109 -13 4 -20 11 -16 17
4 7 0 8 -11 4 -10 -4 -70 -8 -134 -9 -116 -2 -116 -2 -24 -5 54 -2 92 -8 92
-14 0 -6 4 -8 8 -5 5 3 15 -6 22 -19 7 -13 16 -23 19 -21 3 2 6 -118 6 -267
l-1 -272 6 260 6 260 2 -252 2 -253 29 0 c20 0 36 -9 50 -26 27 -34 26 -55 -1
-79 -24 -21 -27 -22 -58 -24 -19 -1 -20 -8 -20 -106 0 -98 1 -105 20 -105 11
0 20 -5 20 -11 0 -5 5 -7 10 -4 6 3 14 -3 18 -15 4 -12 12 -20 17 -18 6 2 12
-8 13 -21 3 -16 0 -21 -9 -16 -8 6 -10 4 -5 -4 12 -19 -24 -51 -56 -51 l-28 0
0 -101 0 -102 29 6 c21 5 34 0 50 -17 28 -30 27 -57 -4 -86 -38 -36 -47 -15
-13 32 17 23 -6 48 -43 48 l-29 0 -2 123 -2 122 -3 -122 -4 -123 -664 0 -665
0 0 125 0 126 699 -3 c385 -2 698 -1 695 1 -2 2 4 10 14 17 13 10 15 17 6 31
-11 17 -48 18 -713 21 l-701 2 0 30 0 30 -267 2 -268 3 -3 305 c-3 338 7 427
53 506 27 46 93 98 140 110 23 6 25 8 11 16 -18 10 -66 -11 -105 -46 l-24 -21
13 25 c16 30 26 40 65 61 27 16 55 16 55 0z m1829 -85 c14 -14 22 -28 20 -31
-3 -2 -23 14 -45 36 -21 23 -30 37 -19 31 11 -6 31 -22 44 -36z m45 -62 c3 -8
2 -12 -4 -9 -6 3 -10 10 -10 16 0 14 7 11 14 -7z m26 -59 c0 -5 -5 -3 -10 5
-5 8 -10 20 -10 25 0 6 5 3 10 -5 5 -8 10 -19 10 -25z m-222 -1332 c2 -113 4
-123 21 -123 30 0 51 -11 51 -26 0 -8 6 -13 12 -12 7 2 14 -7 16 -18 4 -29
-41 -74 -74 -74 l-24 0 0 -686 c1 -648 0 -687 -17 -701 -10 -8 -12 -11 -4 -7
9 4 12 2 9 -7 -3 -8 -11 -13 -17 -11 -7 1 -10 -2 -7 -7 3 -5 -2 -15 -11 -22
-13 -11 -17 -11 -20 -1 -4 9 -187 12 -870 12 l-865 0 29 -34 c15 -19 37 -38
47 -43 18 -9 18 -10 2 -16 -12 -5 -31 7 -66 39 -26 25 -51 41 -54 36 -7 -12
83 -97 113 -107 12 -4 20 -9 18 -12 -3 -2 -23 5 -45 16 -50 26 -105 90 -92
106 7 8 4 25 -7 51 -15 35 -18 121 -26 898 -7 705 -6 861 5 867 7 5 432 7 943
6 l930 -2 3 -122z m213 -1656 c-6 -6 -11 -19 -11 -29 0 -10 -4 -18 -10 -18 -5
0 -10 -5 -10 -12 0 -21 -90 -98 -113 -98 -21 1 -22 1 -2 12 11 6 39 29 62 51
l43 41 -21 22 c-21 23 -21 23 -1 21 12 0 18 -6 15 -14 -3 -7 0 -13 7 -13 6 0
19 18 28 40 10 24 18 33 20 24 2 -9 -1 -21 -7 -27z m-67 -36 c10 -15 -81 -91
-100 -84 -15 5 -15 7 1 16 10 5 31 25 47 43 31 35 43 41 52 25z m-1827 -88
c-3 -5 379 -8 848 -8 469 0 848 3 842 7 -7 4 -7 8 -2 8 6 0 16 -4 24 -9 42
-27 -83 -31 -869 -31 -786 0 -911 4 -869 31 17 11 32 12 26 2z m-563 -432 c-5
-6 -34 20 -34 30 0 5 8 1 18 -8 10 -10 17 -20 16 -22z m32 -43 l29 -33 -32 29
c-31 28 -38 36 -30 36 2 0 16 -15 33 -32z m79 -66 c-3 -3 -11 0 -18 7 -9 10
-8 11 6 5 10 -3 15 -9 12 -12z"/>
<path d="M2288 4333 c94 -2 250 -2 345 0 94 1 17 3 -173 3 -190 0 -267 -2
-172 -3z"/>
<path d="M3747 803 c-4 -3 -7 -35 -7 -69 0 -90 -17 -155 -50 -196 -43 -53 -90
-71 -200 -77 -87 -5 -95 -8 -98 -27 -2 -11 5 -27 14 -35 16 -13 17 -12 10 14
l-6 27 82 0 c46 0 93 3 106 6 13 4 22 2 22 -5 0 -7 -27 -11 -77 -11 -80 0
-111 -9 -99 -29 9 -14 136 -13 136 1 0 6 7 7 16 4 9 -3 35 2 57 13 78 35 154
138 140 189 -3 13 -1 22 6 22 16 0 15 152 -1 168 -13 13 -41 16 -51 5z m-52
-303 c-21 -22 -43 -40 -47 -40 -5 0 10 18 32 40 22 22 44 40 47 40 4 0 -11
-18 -32 -40z"/>
<path d="M1455 440 c-16 -51 -51 -50 925 -50 977 0 942 -2 925 50 -6 20 -8 20
-925 20 -917 0 -919 0 -925 -20z m1845 -16 c0 -8 -5 -12 -11 -9 -5 4 -415 7
-910 6 -585 0 -899 3 -899 9 0 7 318 10 910 10 812 0 910 -2 910 -16z"/>
<path d="M1990 3435 l0 -35 701 2 c642 3 703 4 712 20 8 12 7 21 -2 32 -12 14
-87 16 -712 16 l-699 0 0 -35z"/>
<path d="M3324 3377 c-2 -7 -3 -65 -1 -128 l3 -114 2 122 c2 117 3 122 25 126
l22 4 -23 2 c-12 0 -25 -5 -28 -12z"/>
<path d="M3322 2583 l-2 -123 33 1 c29 2 30 2 5 6 l-27 4 -4 117 -3 117 -2
-122z"/>
<path d="M1990 2415 l0 -35 699 0 c463 0 702 3 706 10 4 6 11 8 16 5 10 -7 1
24 -14 43 -7 9 -161 12 -708 12 l-699 0 0 -35z"/>
<path d="M3325 1710 c0 -366 1 -515 2 -332 2 182 2 482 0 665 -1 182 -2 33 -2
-333z"/>
<path d="M2339 1726 c-110 -39 -176 -144 -143 -226 9 -22 48 -69 94 -113 45
-43 82 -86 86 -102 10 -42 -7 -78 -48 -100 -33 -18 -41 -18 -88 -6 -57 15 -70
8 -70 -35 0 -37 24 -47 104 -42 115 7 193 69 203 161 7 59 -11 90 -103 179
-86 83 -99 107 -84 153 16 48 63 70 134 62 48 -5 57 -3 66 13 14 26 13 36 -6
54 -19 19 -94 21 -145 2z"/>
<path d="M1747 1723 c-51 -4 -58 -6 -50 -21 4 -9 9 -142 10 -295 1 -153 4
-286 7 -294 5 -12 17 -14 56 -11 28 3 53 7 56 10 2 3 0 25 -5 49 -5 24 -11 71
-13 104 l-3 60 71 6 c143 13 224 90 224 215 0 72 -28 123 -84 155 -43 24 -135
32 -269 22z m189 -78 c59 -24 80 -117 43 -187 -18 -33 -70 -58 -121 -58 l-48
0 0 123 c0 68 3 127 7 130 12 12 83 7 119 -8z"/>
<path d="M2614 1719 c-20 -10 -20 -13 -7 -62 9 -35 13 -107 12 -217 -1 -91 2
-178 6 -195 15 -57 45 -103 82 -126 34 -21 50 -24 148 -24 102 0 113 2 157 28
84 49 124 149 135 337 7 126 -3 234 -24 255 -17 18 -53 19 -87 4 -24 -11 -24
-13 -10 -40 36 -71 41 -287 9 -396 -29 -96 -129 -153 -218 -124 -35 12 -78 51
-93 86 -4 11 -11 124 -14 250 l-5 230 -35 2 c-19 1 -44 -3 -56 -8z"/>
</g>
</svg>
