<svg xmlns:inkscape="http://www.inkscape.org/namespaces/inkscape" xmlns:sodipodi="http://sodipodi.sourceforge.net/DTD/sodipodi-0.dtd" xmlns="http://www.w3.org/2000/svg" xmlns:svg="http://www.w3.org/2000/svg" xmlns:rdf="http://www.w3.org/1999/02/22-rdf-syntax-ns#" xmlns:cc="http://creativecommons.org/ns#" xmlns:dc="http://purl.org/dc/elements/1.1/" viewBox="0 0 10.583333 13.2291675" version="1.1" x="0px" y="0px"><g transform="translate(0,0.5291667)" style="" display="inline"><path style="color:#000000;" d="m 3.7290667,0.26459997 c -1.0209,0 -1.8537,0.83460003 -1.8537,1.85650003 0,0.4922 0.1952,0.9645 0.5428,1.3126 0.078,0.078 0.1625,0.1488 0.252,0.2112 -1.0978,0.4237 -1.87640003,1.4867 -1.87640003,2.7322 V 7.51 A 0.26461071,0.26461071 0 0 0 1.0583667,7.7746 h 2.9544 a 0.26458425,0.26458425 0 0 0 0.2646,-0.2646 0.26458425,0.26458425 0 0 0 -0.2646,-0.2646 h -2.6898 V 6.3771 c 0,-1.3323 1.0665,-2.3976 2.4027,-2.3994 0,0 0,0 0,0 10e-4,0 0,0 0,0 0.4316,5e-4 0.8336,0.1124 1.182,0.3084 a 0.26458425,0.26458425 0 0 0 0.3603,-0.1008 0.26458425,0.26458425 0 0 0 -0.1008,-0.3603 c -0.1229,-0.069 -0.2516,-0.1295 -0.3848,-0.1807 0.089,-0.062 0.1733,-0.1325 0.2512,-0.2106 0.3476,-0.3481 0.5428,-0.8204 0.5428,-1.3126 0,-0.4921 -0.1952,-0.9644 -0.5428,-1.31260003 -0.3475,-0.3481 -0.8192,-0.5439 -1.3109,-0.5439 z m 0,0.5292 c 0.3513,0 0.6879,0.1396 0.9364,0.38860003 0.2485,0.2489 0.3882,0.5865 0.3882,0.9387 0,0.3523 -0.1397,0.6898 -0.3882,0.9388 -0.2478,0.2483 -0.5832,0.3878 -0.9334,0.3886 -10e-4,0 0,-1e-4 0,-1e-4 0,0 0,1e-4 0,1e-4 -0.35,-9e-4 -0.6853,-0.1404 -0.933,-0.3886 -0.2485,-0.249 -0.3881,-0.5865 -0.3881,-0.9388 0,-0.7364 0.5901,-1.32730003 1.3245,-1.32730003 z M 6.7443667,3.9777 a 0.26461071,0.26461071 0 0 0 -0.2646,0.2646 v 0.2281 c -0.1306,0.041 -0.2573,0.093 -0.3784,0.1567 l -0.1613,-0.1614 a 0.26461071,0.26461071 0 0 0 -0.3742,0 l -0.571,0.571 a 0.26461071,0.26461071 0 0 0 0,0.3742 l 0.1613,0.1613 c -0.064,0.1211 -0.1161,0.2478 -0.1568,0.3784 h -0.2279 a 0.26461071,0.26461071 0 0 0 -0.2646,0.2646 v 0.8077 a 0.26461071,0.26461071 0 0 0 0.2646,0.2646 h 0.2279 c 0.041,0.1307 0.093,0.2573 0.1568,0.3785 l -0.1613,0.1612 a 0.26461071,0.26461071 0 0 0 0,0.3742 l 0.571,0.571 a 0.26461071,0.26461071 0 0 0 0.3742,0 l 0.1613,-0.1613 c 0.1211,0.064 0.2478,0.116 0.3784,0.1566 v 0.2282 a 0.26461071,0.26461071 0 0 0 0.2646,0.2645 h 0.8074 a 0.26461071,0.26461071 0 0 0 0.2646,-0.2645 V 8.7677 c 0.1307,-0.041 0.2573,-0.093 0.3784,-0.1566 l 0.1613,0.1613 a 0.26461071,0.26461071 0 0 0 0.3742,0 l 0.571,-0.571 a 0.26461071,0.26461071 0 0 0 0,-0.3742 l -0.1613,-0.1612 c 0.064,-0.1212 0.1162,-0.2478 0.1568,-0.3785 h 0.2282 a 0.26461071,0.26461071 0 0 0 0.2646,-0.2646 V 6.2152 a 0.26461071,0.26461071 0 0 0 -0.2646,-0.2646 h -0.2271 c -0.041,-0.1309 -0.093,-0.2578 -0.1572,-0.3791 l 0.1606,-0.1606 a 0.26461071,0.26461071 0 0 0 0,-0.3742 l -0.571,-0.571 a 0.26461071,0.26461071 0 0 0 -0.3742,0 l -0.1606,0.1607 c -0.1213,-0.064 -0.2482,-0.1164 -0.3791,-0.1571 v -0.227 a 0.26461071,0.26461071 0 0 0 -0.2646,-0.2646 z m 0.2646,0.5292 h 0.2783 v 0.1668 a 0.26461071,0.26461071 0 0 0 0.2107,0.2591 c 0.212,0.044 0.4138,0.1276 0.5948,0.2464 a 0.26461071,0.26461071 0 0 0 0.3323,-0.034 l 0.1181,-0.1181 0.1968,0.1968 -0.1181,0.1181 a 0.26461071,0.26461071 0 0 0 -0.034,0.3324 c 0.1189,0.181 0.2026,0.3828 0.2467,0.5948 a 0.26461071,0.26461071 0 0 0 0.259,0.2107 h 0.1669 v 0.2785 h -0.168 a 0.26461071,0.26461071 0 0 0 -0.2591,0.2108 c -0.044,0.2118 -0.1275,0.4134 -0.2462,0.5943 a 0.26461071,0.26461071 0 0 0 0.034,0.3322 l 0.1187,0.1187 -0.1968,0.1968 -0.1187,-0.1187 a 0.26461071,0.26461071 0 0 0 -0.3321,-0.034 c -0.1809,0.1186 -0.3825,0.2021 -0.5943,0.246 a 0.26461071,0.26461071 0 0 0 -0.2108,0.2591 v 0.168 h -0.2783 v -0.168 a 0.26461071,0.26461071 0 0 0 -0.2109,-0.2591 c -0.2117,-0.044 -0.4133,-0.1274 -0.5942,-0.246 a 0.26461071,0.26461071 0 0 0 -0.3322,0.034 l -0.1187,0.1187 -0.1968,-0.1968 0.1187,-0.1187 a 0.26461071,0.26461071 0 0 0 0.034,-0.3322 c -0.1186,-0.1809 -0.2022,-0.3825 -0.2462,-0.5943 a 0.26461071,0.26461071 0 0 0 -0.259,-0.2108 h -0.1677 V 6.4799 h 0.1677 a 0.26461071,0.26461071 0 0 0 0.259,-0.2108 c 0.044,-0.2118 0.1276,-0.4134 0.2462,-0.5943 a 0.26461071,0.26461071 0 0 0 -0.034,-0.3322 l -0.1187,-0.1187 0.1968,-0.1968 0.1187,0.1187 a 0.26461071,0.26461071 0 0 0 0.3322,0.034 c 0.1809,-0.1186 0.3825,-0.202 0.5942,-0.246 a 0.26461071,0.26461071 0 0 0 0.2109,-0.259 z m 0.1393,0.7982 c -0.7226,0 -1.314,0.5914 -1.314,1.314 0,0.7225 0.5914,1.314 1.314,1.314 0.7225,0 1.314,-0.5915 1.314,-1.314 0,-0.7226 -0.5915,-1.314 -1.314,-1.314 z m 0,0.5291 c 0.4366,0 0.7848,0.3483 0.7848,0.7849 0,0.4365 -0.3482,0.7848 -0.7848,0.7848 -0.4366,0 -0.7849,-0.3483 -0.7849,-0.7848 0,-0.4366 0.3483,-0.7849 0.7849,-0.7849 z" fill="#000000" stroke-width="0.00392046" stroke-linecap="round" stroke-linejoin="round"/></g><text x="0" y="25.583334" fill="#000000" font-size="5px" font-weight="bold" font-family="'Helvetica Neue', Helvetica, Arial-Unicode, Arial, Sans-serif">Created by Larea</text><text x="0" y="30.583334" fill="#000000" font-size="5px" font-weight="bold" font-family="'Helvetica Neue', Helvetica, Arial-Unicode, Arial, Sans-serif">from the Noun Project</text></svg>