<svg xmlns="http://www.w3.org/2000/svg" enable-background="new 0 0 512 512" viewBox="0 0 512 640" x="0px" y="0px"><g><path d="m150.99 20.19v12.8c0 .4-.33.73-.73.73h-12.06c-2.31 0-4.19 1.88-4.19 4.19v37.67c0 2.31 1.88 4.19 4.19 4.19h158.24c2.31 0 4.19-1.88 4.19-4.19v-37.67c0-2.31-1.88-4.19-4.19-4.19h-12.06c-.4 0-.73-.33-.73-.73v-12.8c0-2.31-1.88-4.19-4.19-4.19h-39.16c-2.31 0-4.19 1.88-4.19 4.19v3.54c0 .4-.33.73-.73.73h-36.13c-.4 0-.73-.33-.73-.73v-3.54c0-2.31-1.88-4.19-4.19-4.19h-39.16c-2.3 0-4.18 1.88-4.18 4.19zm123.88 27.91c4.85 0 8.78 3.93 8.78 8.78s-3.93 8.78-8.78 8.78-8.78-3.93-8.78-8.78c0-4.84 3.93-8.78 8.78-8.78zm-106.31 8.79c0 4.85-3.93 8.78-8.78 8.78s-8.78-3.93-8.78-8.78 3.93-8.78 8.78-8.78 8.78 3.93 8.78 8.78z"/><path d="m66.77 37.22h54.33c1.93 0 3.5-1.57 3.5-3.5s-1.57-3.5-3.5-3.5h-54.33c-11.05 0-20.04 8.99-20.04 20.04v429.21c0 11.05 8.99 20.04 20.04 20.04h301.11c11.05 0 20.04-8.99 20.04-20.04v-235.42l60.82-60.82 13.49-13.49c4.06-4.06 4.06-10.67 0-14.73l-16.69-16.69c-4.06-4.06-10.67-4.06-14.73 0l-13.51 13.48-29.39 29.39v-130.94c0-11.05-8.99-20.04-20.04-20.04h-54.21c-1.93 0-3.5 1.57-3.5 3.5s1.57 3.5 3.5 3.5h54.21c7.19 0 13.04 5.85 13.04 13.04v137.93l-15.65 15.65v-145.14c0-2.92-2.38-5.3-5.3-5.3h-46.24c-1.93 0-3.5 1.57-3.5 3.5s1.57 3.5 3.5 3.5h44.54v150.45l-90.98 90.98h-97.72c-1.93 0-3.5 1.57-3.5 3.5s1.57 3.5 3.5 3.5h90.72l-48.83 48.83c-1.07 1.07-1.91 2.31-2.5 3.69l-9.71 22.6-9.61 22.36c-.57 1.32-.27 2.84.74 3.86.67.67 1.57 1.03 2.48 1.03.47 0 .94-.09 1.38-.28l44.97-19.32c1.38-.6 2.63-1.44 3.69-2.5l115.37-115.37v196.24h-281.88v-409.57h44.29c1.93 0 3.5-1.57 3.5-3.5s-1.57-3.5-3.5-3.5h-45.99c-2.92 0-5.3 2.38-5.3 5.3v412.95c0 2.92 2.38 5.3 5.3 5.3h285.29c2.92 0 5.3-2.38 5.3-5.3v-204.95l15.65-15.65v228.42c0 7.19-5.85 13.04-13.04 13.04h-301.11c-7.19 0-13.04-5.85-13.04-13.04v-429.21c0-7.18 5.85-13.03 13.04-13.03zm386.95 119.18 3.55 3.55c1.33 1.33 1.33 3.5 0 4.84l-11.01 11.01-14.79-14.79c7.55 1.95 15.82.42 22.25-4.61zm-33.98 2.86 21.53 21.53-4.9 4.9-10.76-10.76-10.77-10.76zm-9.85 9.85 8.29 8.29-189.48 189.48c-3.03-2.59-6.42-4.79-10.08-6.5zm-210.36 231.89 4.13-9.62 5.49 5.49zm16.54-7.11-9.43-9.43 7.85-18.28 1.06.49c8.06 3.74 14.56 10.24 18.3 18.3l.49 1.06zm24.08-11.98c-1.71-3.66-3.91-7.04-6.5-10.08l189.48-189.48 8.29 8.29z"/><path d="m106.05 130.78v27.86c0 5.54 4.5 10.04 10.04 10.04h27.86c5.54 0 10.04-4.5 10.04-10.04v-27.86c0-5.54-4.5-10.04-10.04-10.04h-27.86c-5.54 0-10.04 4.51-10.04 10.04zm40.94 0v27.86c0 1.68-1.36 3.04-3.04 3.04h-27.86c-1.68 0-3.04-1.37-3.04-3.04v-27.86c0-1.68 1.36-3.04 3.04-3.04h27.86c1.67 0 3.04 1.36 3.04 3.04z"/><path d="m153.99 211.08c0-5.54-4.5-10.04-10.04-10.04h-27.86c-5.54 0-10.04 4.5-10.04 10.04v27.86c0 5.54 4.5 10.04 10.04 10.04h27.86c5.54 0 10.04-4.5 10.04-10.04zm-7 27.86c0 1.68-1.36 3.04-3.04 3.04h-27.86c-1.68 0-3.04-1.37-3.04-3.04v-27.86c0-1.68 1.36-3.04 3.04-3.04h27.86c1.68 0 3.04 1.36 3.04 3.04z"/><path d="m153.99 291.39c0-5.54-4.5-10.04-10.04-10.04h-27.86c-5.54 0-10.04 4.5-10.04 10.04v27.86c0 5.54 4.5 10.04 10.04 10.04h27.86c5.54 0 10.04-4.5 10.04-10.04zm-7 27.85c0 1.68-1.36 3.04-3.04 3.04h-27.86c-1.68 0-3.04-1.37-3.04-3.04v-27.86c0-1.68 1.36-3.04 3.04-3.04h27.86c1.68 0 3.04 1.36 3.04 3.04z"/><path d="m143.95 361.65h-27.86c-5.54 0-10.04 4.5-10.04 10.04v27.86c0 5.54 4.5 10.04 10.04 10.04h27.86c5.54 0 10.04-4.5 10.04-10.04v-27.86c0-5.54-4.51-10.04-10.04-10.04zm3.04 37.89c0 1.68-1.36 3.04-3.04 3.04h-27.86c-1.68 0-3.04-1.37-3.04-3.04v-27.86c0-1.68 1.36-3.04 3.04-3.04h27.86c1.68 0 3.04 1.36 3.04 3.04z"/><path d="m325.1 141.21h-155.53c-1.93 0-3.5 1.57-3.5 3.5s1.57 3.5 3.5 3.5h155.53c1.93 0 3.5-1.57 3.5-3.5s-1.57-3.5-3.5-3.5z"/><path d="m325.1 221.51h-155.53c-1.93 0-3.5 1.57-3.5 3.5s1.57 3.5 3.5 3.5h155.53c1.93 0 3.5-1.57 3.5-3.5s-1.57-3.5-3.5-3.5z"/><path d="m186 389.12c1.93 0 3.5-1.57 3.5-3.5s-1.57-3.5-3.5-3.5h-16.43c-1.93 0-3.5 1.57-3.5 3.5s1.57 3.5 3.5 3.5z"/></g><text x="0" y="527" fill="#000000" font-size="5px" font-weight="bold" font-family="'Helvetica Neue', Helvetica, Arial-Unicode, Arial, Sans-serif">Created by lela sari</text><text x="0" y="532" fill="#000000" font-size="5px" font-weight="bold" font-family="'Helvetica Neue', Helvetica, Arial-Unicode, Arial, Sans-serif">from the Noun Project</text></svg>