<svg xmlns="http://www.w3.org/2000/svg" xmlns:xlink="http://www.w3.org/1999/xlink" version="1.1" x="0px" y="0px" viewBox="0 0 24 30" enable-background="new 0 0 24 24" xml:space="preserve"><g><path d="M16,14v6.092c0.581,0.207,1,0.756,1,1.408c0,0.828-0.672,1.5-1.5,1.5S14,22.328,14,21.5c0-0.652,0.419-1.201,1-1.408V14h-1   c0,1.104-1.119,2-2.5,2S9,15.104,9,14H8v2.051c1.14,0.232,2,1.241,2,2.449v2c0,0.715-0.314,1.398-0.861,1.877   C9.044,22.459,8.927,22.5,8.81,22.5c-0.139,0-0.278-0.058-0.376-0.171c-0.182-0.208-0.16-0.524,0.048-0.706   C8.811,21.336,9,20.926,9,20.5v-2C9,17.673,8.327,17,7.5,17S6,17.673,6,18.5v2c0,0.426,0.189,0.836,0.519,1.123   c0.208,0.182,0.229,0.498,0.048,0.706c-0.182,0.208-0.499,0.228-0.705,0.048C5.314,21.898,5,21.215,5,20.5v-2   c0-1.208,0.86-2.217,2-2.449V14c-2.209,0-4,1.791-4,4v6h17v-6C20,15.791,18.209,14,16,14z"/><path d="M9.771,12.653C10.303,12.875,10.887,13,11.5,13s1.197-0.125,1.729-0.347C14.855,11.975,16,10.372,16,8.5V7H7v1.5   C7,10.372,8.144,11.975,9.771,12.653z"/><path d="M16,2.907C14.758,1.636,13.129,1,11.5,1S8.243,1.636,7,2.907C7,4.272,7,4.636,7,6c3,0,6,0,9,0C16,4.636,16,4.272,16,2.907z    M13,4h-1v1h-1V4h-1V3h1V2h1v1h1V4z"/></g><text x="0" y="39" fill="#000000" font-size="5px" font-weight="bold" font-family="'Helvetica Neue', Helvetica, Arial-Unicode, Arial, Sans-serif">Created by Rflor</text><text x="0" y="44" fill="#000000" font-size="5px" font-weight="bold" font-family="'Helvetica Neue', Helvetica, Arial-Unicode, Arial, Sans-serif">from the Noun Project</text></svg>