<?xml version="1.0" standalone="no"?>
<!DOCTYPE svg PUBLIC "-//W3C//DTD SVG 20010904//EN"
 "http://www.w3.org/TR/2001/REC-SVG-20010904/DTD/svg10.dtd">
<svg version="1.0" xmlns="http://www.w3.org/2000/svg"
 width="96.000000pt" height="96.000000pt" viewBox="0 0 96.000000 96.000000"
 preserveAspectRatio="xMidYMid meet">

<g transform="translate(0.000000,96.000000) scale(0.100000,-0.100000)"
fill="#000000" stroke="none">
<path d="M284 906 c-30 -30 -34 -40 -34 -85 l0 -51 45 0 45 0 0 85 c0 55 -4
85 -11 85 -6 0 -26 -15 -45 -34z"/>
<path d="M380 855 l0 -85 100 0 100 0 0 85 0 85 -100 0 -100 0 0 -85z m118 37
c2 -12 12 -22 25 -24 29 -4 29 -32 0 -36 -14 -2 -23 -11 -25 -25 -4 -29 -32
-29 -36 0 -2 14 -11 23 -25 25 -29 4 -28 32 1 36 13 2 22 10 22 21 0 37 33 40
38 3z"/>
<path d="M620 855 l0 -85 45 0 45 0 0 51 c0 45 -4 55 -34 85 -19 19 -39 34
-45 34 -7 0 -11 -30 -11 -85z"/>
<path d="M224 706 c-8 -14 -14 -35 -12 -48 l3 -23 265 0 265 0 3 23 c2 13 -4
34 -12 48 l-16 24 -240 0 -240 0 -16 -24z"/>
<path d="M270 510 c0 -121 -1 -120 210 -120 211 0 210 -1 210 120 l0 80 -210
0 -210 0 0 -80z"/>
<path d="M290 335 c-15 -16 -24 -41 -28 -74 -3 -35 -11 -56 -28 -72 -31 -29
-31 -69 -1 -97 32 -30 71 -28 96 4 28 35 26 65 -4 94 -29 27 -34 84 -10 116
16 21 20 54 7 54 -5 0 -19 -11 -32 -25z m15 -195 c0 -18 -6 -26 -23 -28 -13
-2 -25 3 -28 12 -10 26 4 48 28 44 17 -2 23 -10 23 -28z"/>
<path d="M264 149 c-10 -17 13 -36 27 -22 12 12 4 33 -11 33 -5 0 -12 -5 -16
-11z"/>
<path d="M380 356 c0 -2 23 -21 50 -41 56 -41 54 -41 125 19 l30 25 -102 1
c-57 0 -103 -2 -103 -4z"/>
<path d="M630 343 c0 -10 7 -27 15 -37 8 -11 15 -37 15 -58 0 -32 -3 -38 -21
-38 -23 0 -60 -18 -71 -34 -4 -6 -8 -35 -8 -63 0 -63 25 -96 68 -91 34 4 35
30 2 38 -23 5 -25 11 -25 55 l0 50 75 0 75 0 0 -50 c0 -44 -2 -50 -25 -55 -33
-8 -32 -34 2 -38 43 -5 68 28 68 91 0 28 -4 57 -8 63 -10 16 -48 34 -70 34
-16 0 -20 9 -24 50 -4 34 -13 59 -28 75 -28 29 -40 32 -40 8z"/>
<path d="M135 296 l-50 -11 -33 -120 c-18 -66 -30 -126 -27 -133 3 -9 57 -12
220 -12 l215 0 0 100 0 100 -24 -12 c-35 -15 -51 -6 -65 41 -6 23 -16 39 -21
36 -17 -11 -11 -43 15 -81 14 -20 25 -48 25 -61 0 -56 -56 -113 -110 -113 -54
0 -110 57 -110 113 0 13 11 40 24 59 13 19 25 52 28 72 5 41 0 43 -87 22z"/>
<path d="M738 282 c3 -22 12 -34 33 -43 50 -20 69 -54 69 -121 0 -33 -5 -68
-10 -79 -10 -18 -7 -19 44 -19 30 0 58 4 61 10 3 5 -8 64 -26 131 -35 133 -33
131 -125 143 l-51 7 5 -29z"/>
<path d="M596 274 c-10 -25 -7 -34 9 -28 17 7 20 30 6 38 -5 3 -12 -1 -15 -10z"/>
<path d="M410 265 c0 -8 7 -15 16 -15 14 0 14 3 4 15 -7 8 -14 15 -16 15 -2 0
-4 -7 -4 -15z"/>
<path d="M525 260 c-3 -5 1 -10 9 -10 9 0 16 5 16 10 0 6 -4 10 -9 10 -6 0
-13 -4 -16 -10z"/>
<path d="M500 120 c0 -94 1 -100 20 -100 18 0 19 3 9 22 -7 13 -10 49 -7 94 4
55 2 74 -9 78 -10 4 -13 -15 -13 -94z"/>
<path d="M640 116 c0 -18 33 -30 60 -21 37 12 23 35 -20 35 -28 0 -40 -4 -40
-14z"/>
</g>
</svg>
